<svg width="53.031" height="15.306" viewBox="0 0 53.031 15.306" xmlns="http://www.w3.org/2000/svg"><g fill="#fff"><path d="M5.597 12.781h1.158V3.568H5.597zM12.422 12.747h1.14V8.166l4.156-4.598H16.27L13 7.195 9.715 3.568h-1.43l4.138 4.581zM19.246 12.747h1.14v-3.27l2.232-1.873 3.712 5.143h1.38l-4.275-5.926 3.713-3.253h-1.499l-5.262 4.564V3.568h-1.141zM32.405 12.747h1.141V8.166l4.156-4.598h-1.448l-3.27 3.627-3.286-3.627h-1.43l4.137 4.581zM39.23 12.747h1.14v-3.27l2.232-1.873 3.712 5.143h1.38l-4.275-5.926 3.713-3.253h-1.499l-5.262 4.564V3.568H39.23z"/></g></svg>