<svg version="1.1" id="a" xmlns="http://www.w3.org/2000/svg" xmlns:xlink="http://www.w3.org/1999/xlink" x="0px" y="0px" viewBox="0 0 992 332.39" enable-background="new 0 0 992 332.39" xml:space="preserve" width="100%" height="100%" preserveAspectRatio="none"><g><path fill="#FFFFFF" d="M74.08,104.36c19.5,15.2,41.03,23.05,61.05,23.05c26.09,0,42.55-12.41,42.55-28.62 c0-12.41-10.64-22.54-31.92-24.32c-23.3-1.77-41.79-2.03-56.23-8.61c-12.67-6.08-19.5-15.96-19.5-28.12 C70.03,16.72,90.54,0,122.97,0c23.05,0,45.59,7.85,65.35,22.29l-9.88,14.18c-16.97-13.68-35.72-20.52-55.22-20.52 c-21.53,0-35.46,9.63-35.46,21.02c0,5.07,2.28,8.87,6.59,12.16c11.65,8.87,31.16,6.84,56.23,9.63 c28.62,3.29,45.09,19.76,45.09,40.53c0,23.56-21.78,43.82-60.29,43.82c-26.85,0-49.9-7.6-71.18-24.06L74.08,104.36z" data-color-group="0"/><path fill="#FFFFFF" d="M242.44,91.44c0,28.37,8.11,35.72,39.26,35.72s39.26-7.35,39.26-35.72V3.04h16.97V96 c0,33.44-15.96,47.11-56.23,47.11S225.47,129.43,225.47,96V3.04h16.97L242.44,91.44L242.44,91.44z" data-color-group="0"/><path fill="#FFFFFF" d="M376.22,3.04h8.87l88.66,102.08V3.04h16.97v136.53h-8.61L393.2,37.49v102.08h-16.97V3.04H376.22z" data-color-group="0"/><path fill="#FFFFFF" d="M529.38,104.36c19.5,15.2,41.03,23.05,61.05,23.05c26.09,0,42.55-12.41,42.55-28.62 c0-12.41-10.64-22.54-31.92-24.32c-23.3-1.77-41.79-2.03-56.23-8.61c-12.66-6.08-19.5-15.96-19.5-28.12 C525.33,16.72,545.85,0,578.27,0c23.05,0,45.59,7.85,65.35,22.29l-9.88,14.18c-16.97-13.68-35.72-20.52-55.22-20.52 c-21.53,0-35.46,9.63-35.46,21.02c0,5.07,2.28,8.87,6.59,12.16c11.65,8.87,31.16,6.84,56.23,9.63 c28.62,3.29,45.09,19.76,45.09,40.53c0,23.56-21.78,43.82-60.29,43.82c-26.85,0-49.9-7.6-71.18-24.06L529.38,104.36L529.38,104.36z " data-color-group="0"/><path fill="#FFFFFF" d="M680.51,3.04h103.78v15.71h-86.81v40.02h54.71v15.7h-54.71v49.39h96v15.71H680.51L680.51,3.04L680.51,3.04z " data-color-group="0"/><path fill="#FFFFFF" d="M863.1,18.74h-47.75V3.04H927.8v15.71h-47.73v120.82H863.1L863.1,18.74L863.1,18.74z" data-color-group="0"/></g><g><path fill="#FFFFFF" d="M-0.005,178.03h15.71l55.22,83.59l55.47-83.59h15.45v136.53h-16.72V207.92l-54.21,80.8l-54.2-80.8v106.64 h-16.72V178.03z" data-color-group="0"/><path fill="#FFFFFF" d="M235.065,177.88h14.18l67.63,136.53h-18.49l-18.49-36.73h-75.48l-17.98,36.73h-18.24L235.065,177.88z M272.295,261.72l-30.14-60.54l-29.89,60.54H272.295z" data-color-group="0"/><path fill="#FFFFFF" d="M343.235,177.88h78.27c26.85,0,42.81,14.19,42.81,38c0,19.25-12.41,34.96-32.42,38.5l34.2,60.03h-18.74 l-34.2-59.78h-52.94v59.78h-16.97V177.88H343.235z M420.495,238.67c17.22,0,26.09-7.85,26.09-22.29s-8.87-22.8-25.33-22.8h-61.05 v45.09L420.495,238.67L420.495,238.67z" data-color-group="0"/><path fill="#FFFFFF" d="M556.555,317.95c-38.5,0-69.15-29.89-69.15-71.43s29.89-71.68,70.67-71.68s70.92,30.14,70.92,71.68 c0,30.9-16.21,55.47-44.58,67.13l9.12,18.74h-19l-7.35-14.94c-4.05,0.51-7.35,0.51-10.64,0.51L556.555,317.95z M551.485,284.26h19 l6.84,14.44c21.28-8.36,33.94-27.86,33.94-52.18c0-32.17-22.54-55.73-53.19-55.73s-53.19,23.3-53.19,55.73s22.04,55.22,52.69,55.22 h2.28l-8.36-17.48H551.485z" data-color-group="0"/><path fill="#FFFFFF" d="M675.865,266.28c0,28.37,8.11,35.72,39.26,35.72s39.26-7.35,39.26-35.72v-88.4h16.97v92.96 c0,33.44-15.96,47.11-56.23,47.11c-40.27,0-56.23-13.68-56.23-47.11v-92.96h16.97V266.28L675.865,266.28z" data-color-group="0"/><path fill="#FFFFFF" d="M812.085,177.12h17.22v137.8h-17.22V177.12z" data-color-group="0"/><path fill="#FFFFFF" d="M870.415,279.2c19.5,15.2,41.03,23.05,61.05,23.05c26.09,0,42.55-12.41,42.55-28.62 c0-12.41-10.64-22.54-31.92-24.32c-23.3-1.77-41.79-2.03-56.23-8.61c-12.67-6.08-19.5-15.96-19.5-28.12 c0-21.02,20.52-37.74,52.94-37.74c23.05,0,45.59,7.85,65.35,22.29l-9.88,14.18c-16.97-13.68-35.72-20.52-55.22-20.52 c-21.53,0-35.46,9.63-35.46,21.02c0,5.07,2.28,8.87,6.59,12.16c11.65,8.87,31.16,6.84,56.23,9.63 c28.62,3.29,45.09,19.76,45.09,40.53c0,23.56-21.78,43.82-60.29,43.82c-26.85,0-49.9-7.6-71.18-24.06L870.415,279.2z" data-color-group="0"/></g></svg>