<svg width="98.758" height="28.563" viewBox="0 0 98.758 28.563" xmlns="http://www.w3.org/2000/svg"><g fill="#fff"><path d="M4.01 19.598h5.984c2.03 0 3.242-1.14 3.242-2.885 0-1.105-.516-1.978-1.55-2.565.57-.374.873-.998.873-1.764 0-1.55-.944-2.387-2.867-2.387H4.009zm1.193-1.104v-3.598h5.023c1.122 0 1.763.73 1.763 1.799 0 1.086-.64 1.799-1.763 1.799zm0-4.703v-2.69h4.595c1.034 0 1.55.446 1.55 1.354 0 .855-.534 1.336-1.55 1.336zM20.845 19.848c2.867 0 4.987-2.102 4.987-5.023 0-2.922-2.12-5.041-4.987-5.041-2.868 0-4.97 2.12-4.97 5.04 0 2.922 2.102 5.024 4.97 5.024zm0-1.123c-2.138 0-3.741-1.62-3.741-3.9s1.603-3.92 3.74-3.92c2.156 0 3.741 1.64 3.741 3.92 0 2.262-1.585 3.9-3.74 3.9zM33.138 19.848c2.868 0 4.987-2.102 4.987-5.023 0-2.922-2.12-5.041-4.987-5.041-2.868 0-4.97 2.12-4.97 5.04 0 2.922 2.102 5.024 4.97 5.024zm0-1.123c-2.138 0-3.74-1.62-3.74-3.9s1.602-3.92 3.74-3.92c2.155 0 3.74 1.64 3.74 3.92 0 2.262-1.585 3.9-3.74 3.9zM41.227 19.598h1.194v-3.42l2.333-1.96 3.883 5.38h1.443L45.609 13.4l3.883-3.403h-1.567l-5.504 4.774V9.997h-1.194zM59.597 19.598h1.193V12.42l6.252 7.178h.606v-9.6h-1.193v7.178L60.22 9.997h-.623zM75.72 19.848c2.867 0 4.987-2.102 4.987-5.023 0-2.922-2.12-5.041-4.987-5.041-2.868 0-4.97 2.12-4.97 5.04 0 2.922 2.102 5.024 4.97 5.024zm0-1.123c-2.138 0-3.741-1.62-3.741-3.9s1.603-3.92 3.74-3.92c2.156 0 3.741 1.64 3.741 3.92 0 2.262-1.585 3.9-3.74 3.9zM85.394 19.598h.873l2.512-7.73 2.53 7.73h.872l3.117-9.6h-1.14l-2.387 7.392-2.44-7.393h-1.069l-2.44 7.41-2.387-7.41h-1.176z"/></g></svg>